<svg fill="rgb(88, 129, 87)!important" id="svg" version="1.1" xmlns="http://www.w3.org/2000/svg" xmlns:xlink="http://www.w3.org/1999/xlink" width="50" height="30" viewBox="0, 0, 400,294.2760942760943"><g id="svgg"><path id="path0" d="M187.093 13.616 C 135.962 16.021,93.564 29.535,60.269 54.042 C 28.273 77.593,12.420 102.646,9.761 133.863 C 7.424 161.303,16.614 187.169,36.372 208.754 C 37.558 210.051,38.774 211.401,39.074 211.755 C 43.297 216.745,56.551 227.470,67.278 234.577 C 68.776 235.569,69.204 234.539,63.739 243.098 C 51.844 261.727,44.831 273.344,43.966 275.849 C 41.541 282.871,49.794 289.169,57.129 285.893 C 57.869 285.563,59.484 284.999,60.718 284.640 C 61.953 284.281,65.741 283.180,69.136 282.194 C 76.686 280.001,88.386 276.589,92.480 275.387 C 94.147 274.898,96.167 274.312,96.970 274.087 C 97.772 273.861,100.550 273.051,103.143 272.288 C 105.735 271.524,108.412 270.752,109.091 270.571 C 109.770 270.391,111.285 269.950,112.458 269.593 C 113.631 269.235,116.712 268.323,119.304 267.565 C 124.364 266.087,125.299 265.811,129.966 264.420 C 134.128 263.181,134.208 263.174,136.925 263.828 C 149.424 266.836,164.872 268.955,182.492 270.080 C 188.229 270.447,209.476 270.445,215.264 270.078 C 222.886 269.595,232.028 268.774,235.802 268.234 C 236.667 268.111,238.485 267.850,239.843 267.656 C 244.081 267.050,244.929 266.918,247.699 266.436 C 256.381 264.927,269.181 261.974,274.378 260.282 C 274.890 260.115,276.672 259.555,278.339 259.038 C 283.214 257.524,291.385 254.622,294.501 253.298 C 295.180 253.009,296.745 252.355,297.980 251.843 C 324.927 240.679,350.780 222.110,366.254 202.806 C 395.339 166.519,395.445 117.367,366.516 81.326 C 343.307 52.413,303.166 29.382,259.035 19.660 C 237.323 14.876,209.679 12.554,187.093 13.616 M212.047 29.408 C 264.910 31.752,311.198 49.313,343.080 79.121 C 367.567 102.016,377.199 131.020,370.146 160.631 C 362.237 193.841,328.598 224.351,280.857 241.615 C 241.194 255.958,188.317 258.752,142.389 248.931 C 137.668 247.921,136.904 247.817,134.083 247.794 L 130.976 247.768 122.559 250.239 C 90.408 259.678,68.623 265.993,68.216 265.993 C 68.064 265.993,68.127 265.744,68.371 265.376 C 68.596 265.036,70.460 262.082,72.513 258.810 C 74.567 255.539,77.557 250.791,79.159 248.260 C 86.953 235.944,87.307 235.236,87.003 232.556 C 86.649 229.432,84.540 226.818,80.213 224.143 C 43.516 201.451,25.153 174.087,25.141 142.076 C 25.131 113.364,39.384 88.818,68.380 67.618 C 106.162 39.994,155.405 26.897,212.047 29.408 M174.299 62.763 C 170.548 63.672,168.347 65.698,167.701 68.836 C 167.495 69.840,167.447 83.518,167.498 127.390 L 167.565 184.634 168.301 186.129 C 171.254 192.128,179.480 192.124,182.427 186.123 L 183.053 184.848 183.053 126.599 L 183.053 68.350 182.424 67.070 C 181.035 64.242,177.007 62.107,174.299 62.763 M272.788 68.690 C 270.286 69.208,268.399 70.654,267.293 72.900 L 266.554 74.401 266.387 95.169 C 266.295 106.591,266.245 131.291,266.275 150.056 L 266.330 184.175 267.064 185.675 C 269.992 191.661,278.489 191.504,281.343 185.410 L 281.817 184.400 281.985 137.037 C 282.207 74.854,282.204 74.515,281.493 73.064 C 279.938 69.892,276.156 67.992,272.788 68.690 M122.768 74.143 C 120.519 74.779,118.510 76.466,117.549 78.525 L 117.059 79.574 117.059 137.823 L 117.059 196.072 117.577 197.194 C 120.640 203.831,130.276 203.148,132.310 196.151 C 132.629 195.052,132.658 189.249,132.606 137.365 L 132.548 79.798 131.956 78.536 C 130.331 75.071,126.300 73.143,122.768 74.143 M223.823 81.723 C 221.415 82.197,219.436 83.718,218.355 85.928 L 217.621 87.430 217.621 130.079 L 217.621 172.727 218.160 174.067 C 220.678 180.320,229.629 180.481,232.474 174.325 L 233.109 172.952 233.109 130.191 L 233.109 87.430 232.517 86.168 C 231.384 83.751,229.373 82.211,226.685 81.701 C 225.378 81.453,225.191 81.455,223.823 81.723 M197.968 96.585 C 196.196 97.189,194.895 98.174,193.974 99.610 C 192.498 101.909,192.593 98.238,192.593 153.353 L 192.593 203.358 193.086 204.877 C 195.300 211.693,205.296 211.842,207.820 205.097 L 208.305 203.799 208.305 153.326 C 208.305 103.530,208.299 102.834,207.857 101.403 C 206.610 97.366,202.110 95.173,197.968 96.585 M248.005 100.898 C 246.517 101.377,244.925 102.549,244.063 103.800 C 242.530 106.024,242.638 101.149,242.703 165.216 L 242.761 223.232 243.418 224.570 C 246.377 230.597,254.817 230.553,257.658 224.494 L 258.249 223.232 258.249 164.983 L 258.249 106.734 257.737 105.466 C 256.251 101.793,251.766 99.688,248.005 100.898 M147.083 115.614 C 145.398 116.281,143.647 117.966,142.852 119.688 L 142.200 121.100 142.200 168.350 L 142.200 215.600 142.827 216.878 C 145.723 222.776,154.106 222.785,157.043 216.894 L 157.688 215.600 157.688 168.462 C 157.688 114.909,157.886 120.080,155.748 117.740 C 153.575 115.363,149.960 114.476,147.083 115.614 M98.159 119.596 C 95.976 120.376,94.364 121.811,93.324 123.899 L 92.817 124.916 92.817 142.088 L 92.817 159.259 93.315 160.327 C 96.210 166.539,104.795 166.520,107.714 160.296 L 108.305 159.035 108.305 142.076 L 108.305 125.117 107.538 123.606 C 105.755 120.093,101.665 118.344,98.159 119.596 M297.034 121.749 C 294.714 122.507,293.084 123.944,292.054 126.140 L 291.470 127.385 291.470 140.970 L 291.470 154.555 292.209 156.056 C 295.087 161.901,303.346 161.892,306.227 156.041 L 306.958 154.555 306.958 140.858 L 306.958 127.160 306.336 125.894 C 304.717 122.598,300.367 120.660,297.034 121.749 " stroke="none" fill="rgba(88, 129, 87, 1)" fill-rule="evenodd"></path></g></svg>